<?xml version="1.0" encoding="UTF-8" standalone="no"?>
<svg width="565px" height="68px" viewBox="0 0 565 68" version="1.1" xmlns="http://www.w3.org/2000/svg" xmlns:xlink="http://www.w3.org/1999/xlink" xmlns:sketch="http://www.bohemiancoding.com/sketch/ns">
    <!-- Generator: Sketch 3.3.3 (12072) - http://www.bohemiancoding.com/sketch -->
    <title>RR_Logo_Horiz_Color</title>
    <desc>Created with Sketch.</desc>
    <defs></defs>
    <g id="Page-1" stroke="none" stroke-width="1" fill="none" fill-rule="evenodd" sketch:type="MSPage">
        <g id="RR_Logo_Horiz_Color" sketch:type="MSLayerGroup">
            <path d="M419.978,57.136 L419.229,58.769 L418.637,56.87 L414.908,59.821 L414.487,59.201 L413.555,60.863 L411.985,61.395 L410.916,63.642 L405.754,63.616 L405.591,64.969 L405.706,66.298 L405.705,66.298 L406.484,67.945 L427.122,67.945 L427.122,59.555 L425.29,54.986 L423.004,57.146 L419.978,57.136" id="Fill-1" fill="#00A3DB" sketch:type="MSShapeGroup"></path>
            <path d="M381.276,67.945 L382.43,67.945 L385.224,64.087 L389.243,64.883 L391.06,61.898 L396.551,59.589 L396.551,46.919 L402.178,58.831 L409.852,54.935 L411.124,53.536 L412.871,54.805 L415.524,50.719 L417.788,50.719 L420.33,48.904 L422.75,48.655 L420.469,42.967 C423.651,42.1 426.062,38.531 426.062,35.348 L426.062,29.501 L425.433,30.365 L424.295,30.714 L423.498,32.416 L421.793,32.337 L419.828,31.963 L418.316,33.558 L420.027,33.898 L413.241,36.76 L405.798,38.758 L397.859,43.244 L397.289,43.131 L392.146,45.829 L390.508,47.572 L388.184,47.682 L386.307,47.463 L386.26,49.623 L385.051,49.739 L384.137,50.649 L381.285,50.083 L378.756,52.984 L375.43,55.713 L375.43,67.945 L381.184,67.945 L381.233,67.906 L381.276,67.945" id="Fill-2" fill="#00A3DB" sketch:type="MSShapeGroup"></path>
            <path d="M517.102,0.386 L517.102,17.356 L529.733,17.356 L529.733,53.502 L530.033,53.422 L535.402,51.099 L537.697,51.304 L546.842,48.777 L529.884,55.938 L529.733,55.938 L529.733,67.877 L550.846,67.877 L550.846,17.356 L560.971,17.356 L564.344,8.775 L564.344,0.386 L517.102,0.386" id="Fill-3" fill="#00A3DB" sketch:type="MSShapeGroup"></path>
            <path d="M435.758,67.738 L436.436,65.546 L441.09,64.183 L441.498,65.187 L443.626,62.841 L447.906,62.766 L448.432,61.026 L453.932,59.188 L453.932,38.829 L440.781,44.654 L439.001,46.562 L439.061,48.002 L434.778,48.077 L433.723,50.599 L432.905,51.1 L432.905,67.919 L434.427,66.958 L435.758,67.738" id="Fill-4" fill="#00A3DB" sketch:type="MSShapeGroup"></path>
            <path d="M448.454,17.837 L448.024,18.858 L446.857,19.441 L447.06,20.453 L443.43,20.457 L442.731,22.316 L437.791,25.124 L438.088,26.085 L435.873,25.467 C435.873,25.467 435.003,26.639 434.81,26.778 C434.672,26.876 433.556,27.193 432.905,27.373 L432.905,44.589 L434.748,44.137 L442.094,40.302 L443.433,40.567 L444.176,38.352 L448.764,37.012 L449.173,38.015 L451.301,35.67 L453.932,35.624 L453.932,16.282 L448.454,17.837" id="Fill-5" fill="#00A3DB" sketch:type="MSShapeGroup"></path>
            <path d="M446.295,66.531 L443.511,67.945 L453.932,67.945 L453.932,62.602 L450.508,64.219 L446.295,66.531" id="Fill-6" fill="#00A3DB" sketch:type="MSShapeGroup"></path>
            <path d="M434.096,19.33 L445.261,16.766 L449.293,14.46 L450.624,14.651 L450.624,13.111 L453.932,12.39 L453.932,0.436 L432.905,0.436 L432.905,20.925 L433.171,20.925 L434.096,19.33" id="Fill-7" fill="#00A3DB" sketch:type="MSShapeGroup"></path>
            <path d="M473.615,6.383 L474.613,5.283 L475.564,5.283 L476.614,4.584 L486.961,1.77 L492.346,0.436 L470.13,0.436 C465.117,0.436 461.644,3.908 461.644,8.827 L461.644,9.346 L471.776,6.383 L473.615,6.383" id="Fill-8" fill="#00A3DB" sketch:type="MSShapeGroup"></path>
            <path d="M503.789,67.945 C507.841,67.945 510.851,65.657 511.871,62.191 L499.182,67.945 L503.789,67.945" id="Fill-9" fill="#00A3DB" sketch:type="MSShapeGroup"></path>
            <path d="M467.635,32.53 L461.644,35.353 L461.644,57.043 L462.997,57.455 L463.785,55.312 L465.507,55.312 L466.566,54.458 L471.526,52.827 L482.764,49.306 L482.764,26.93 L467.635,32.53" id="Fill-10" fill="#00A3DB" sketch:type="MSShapeGroup"></path>
            <path d="M489.911,67.945 L491.316,67.945 L493.587,66.046 L495.398,65.774 L497.231,65.595 L498.993,63.68 L507.471,60.534 L511.717,60.489 L511.983,58.336 L512.277,58.54 L512.277,8.827 C512.277,3.908 508.804,0.436 503.789,0.436 L499.927,0.436 L497.302,1.214 L474.184,7.583 L470.543,8.811 L468.161,9.885 L461.644,12.989 L461.644,31.958 L468.631,29.666 L470.671,30.284 L471.128,28.545 L472.755,28.545 L473.732,27.201 L474.998,27.201 L482.764,24.689 L482.764,17.41 L491.154,17.41 L491.154,21.975 L493.952,21.07 L494.821,21.191 L505.387,18.271 L491.154,24.282 L491.154,47.255 L497.712,45.442 L491.154,48.212 L491.154,51.069 L484.389,51.069 L480.107,52.877 L478.883,52.682 L461.644,59.018 L461.644,59.555 C461.644,64.474 465.117,67.945 470.13,67.945 L488.686,67.945 L489.564,67.666 L489.911,67.945" id="Fill-11" fill="#00A3DB" sketch:type="MSShapeGroup"></path>
            <path d="M29.533,30.066 L21.135,30.066 L21.135,17.423 L29.535,17.423 L29.533,30.066 L29.533,30.066 Z M50.671,35.377 L50.671,8.838 C50.671,3.912 47.197,0.441 42.273,0.441 L0,0.441 L0,68 L21.135,68 L21.135,46.957 L31.079,68 L51.733,68 L51.736,59.603 L45.074,42.999 C48.26,42.133 50.671,38.562 50.671,35.377 L50.671,35.377 Z" id="Fill-12" fill="#1A1918" sketch:type="MSShapeGroup"></path>
            <path d="M78.662,17.423 L87.057,17.423 L87.057,51.109 L78.662,51.109 L78.662,17.423 Z M99.7,0.441 L66.015,0.441 C60.997,0.441 57.522,3.912 57.522,8.838 L57.522,59.603 C57.522,64.524 60.998,68 66.015,68 L99.7,68 C104.72,68 108.192,64.524 108.192,59.603 L108.192,8.838 C108.192,3.912 104.72,0.441 99.7,0.441 L99.7,0.441 Z" id="Fill-13" fill="#1A1918" sketch:type="MSShapeGroup"></path>
            <path d="M137.918,37.502 L141.006,17.423 L144.095,37.502 L137.918,37.502 L137.918,37.502 Z M123.439,0.441 L113.98,59.603 L113.983,68 L135.022,68 L136.374,54.389 L145.637,54.389 L146.894,68 L168.032,68 L168.032,59.603 L158.57,0.441 L123.439,0.441 L123.439,0.441 Z" id="Fill-14" fill="#1A1918" sketch:type="MSShapeGroup"></path>
            <path d="M194.957,17.423 L203.356,17.423 L203.356,30.067 L194.957,30.067 L194.957,17.423 Z M224.492,35.377 L224.494,8.838 C224.494,3.912 221.017,0.441 216.094,0.441 L173.823,0.441 L173.821,68 L194.957,68 L194.957,46.957 L204.897,68 L225.552,68 L225.552,59.603 L218.896,42.999 C222.081,42.133 224.492,38.562 224.492,35.377 L224.492,35.377 Z" id="Fill-15" fill="#1A1918" sketch:type="MSShapeGroup"></path>
            <path d="M231.343,68 L252.383,68 L252.385,0.441 L231.343,0.441 L231.343,68" id="Fill-16" fill="#1A1918" sketch:type="MSShapeGroup"></path>
            <path d="M291.277,0.441 L291.279,0.441" id="Fill-17" fill="#1A1918" sketch:type="MSShapeGroup"></path>
            <path d="M291.277,0.441 L291.279,0.441" id="Stroke-18" stroke-linecap="round" stroke-linejoin="round" sketch:type="MSShapeGroup"></path>
            <path d="M291.279,0.441 L294.077,31.709 L282.495,0.441 L260.101,0.436 L260.104,68 L279.503,68 L278.44,36.824 L288.381,68 L310.776,68 L310.774,0.441 L291.279,0.441" id="Fill-19" fill="#1A1918" sketch:type="MSShapeGroup"></path>
            <path d="M369.167,28.427 L348.027,28.427 L348.027,51.109 L339.632,51.111 L339.629,17.423 L365.403,17.423 L368.779,8.838 L368.779,0.441 L326.985,0.436 C321.966,0.436 318.493,3.912 318.494,8.838 L318.494,59.603 C318.493,64.524 321.966,68 326.985,68 L369.164,68 L369.165,59.712 L369.165,47.114 L369.167,28.427" id="Fill-20" fill="#1A1918" sketch:type="MSShapeGroup"></path>
            <path d="M404.94,28.508 L403.342,30.044 L400.98,29.165 L398.92,30.573 L396.551,30.802 L396.551,17.41 L404.943,17.41 L404.94,28.508 L404.94,28.508 Z M417.672,0.436 L375.43,0.436 L375.43,46.837 L379.667,45.423 L379.508,43.946 L384.894,42.121 L385.101,41.44 L387.747,40.653 L393.68,36.943 L396.859,36.538 L398.41,35.398 L399.007,35.953 L401.722,32.44 L405.145,33.118 L406.321,30.973 L413.292,28.256 L413.433,29.699 L422.899,25.128 L423.479,24.458 L424.985,25.479 L426.062,23.898 L426.062,8.827 C426.062,3.908 422.59,0.436 417.672,0.436 L417.672,0.436 Z" id="Fill-21" fill="#00A3DB" sketch:type="MSShapeGroup"></path>
        </g>
    </g>
</svg>