<?xml version="1.0" encoding="UTF-8" standalone="no"?>
<svg width="366px" height="68px" viewBox="0 0 366 68" version="1.1" xmlns="http://www.w3.org/2000/svg" xmlns:xlink="http://www.w3.org/1999/xlink" xmlns:sketch="http://www.bohemiancoding.com/sketch/ns">
    <!-- Generator: Sketch 3.3.3 (12072) - http://www.bohemiancoding.com/sketch -->
    <title>oneriot copy</title>
    <desc>Created with Sketch.</desc>
    <defs></defs>
    <g id="Page-1" stroke="none" stroke-width="1" fill="none" fill-rule="evenodd" sketch:type="MSPage">
        <g id="oneriot-copy" sketch:type="MSLayerGroup">
            <g id="Riot" transform="translate(176.000000, 0.000000)" fill="#1A1919" sketch:type="MSShapeGroup">
                <path d="M44.978,57.136 L44.229,58.769 L43.637,56.87 L39.908,59.821 L39.487,59.201 L38.555,60.863 L36.985,61.395 L35.916,63.642 L30.754,63.616 L30.591,64.969 L30.706,66.298 L30.705,66.298 L31.484,67.945 L52.122,67.945 L52.122,59.555 L50.29,54.986 L48.004,57.146 L44.978,57.136" id="Fill-1-Copy"></path>
                <path d="M6.276,67.945 L7.43,67.945 L10.224,64.087 L14.243,64.883 L16.06,61.898 L21.551,59.589 L21.551,46.919 L27.178,58.831 L34.852,54.935 L36.124,53.536 L37.871,54.805 L40.524,50.719 L42.788,50.719 L45.33,48.904 L47.75,48.655 L45.469,42.967 C48.651,42.1 51.062,38.531 51.062,35.348 L51.062,29.501 L50.433,30.365 L49.295,30.714 L48.498,32.416 L46.793,32.337 L44.828,31.963 L43.316,33.558 L45.027,33.898 L38.241,36.76 L30.798,38.758 L22.859,43.244 L22.289,43.131 L17.146,45.829 L15.508,47.572 L13.184,47.682 L11.307,47.463 L11.26,49.623 L10.051,49.739 L9.137,50.649 L6.285,50.083 L3.756,52.984 L0.43,55.713 L0.43,67.945 L6.184,67.945 L6.233,67.906 L6.276,67.945" id="Fill-2-Copy"></path>
                <path d="M142.102,0.386 L142.102,17.356 L154.733,17.356 L154.733,53.502 L155.033,53.422 L160.402,51.099 L162.697,51.304 L171.842,48.777 L154.884,55.938 L154.733,55.938 L154.733,67.877 L175.846,67.877 L175.846,17.356 L185.971,17.356 L189.344,8.775 L189.344,0.386 L142.102,0.386" id="Fill-3-Copy"></path>
                <path d="M60.758,67.738 L61.436,65.546 L66.09,64.183 L66.498,65.187 L68.626,62.841 L72.906,62.766 L73.432,61.026 L78.932,59.188 L78.932,38.829 L65.781,44.654 L64.001,46.562 L64.061,48.002 L59.778,48.077 L58.723,50.599 L57.905,51.1 L57.905,67.919 L59.427,66.958 L60.758,67.738" id="Fill-4-Copy"></path>
                <path d="M73.454,17.837 L73.024,18.858 L71.857,19.441 L72.06,20.453 L68.43,20.457 L67.731,22.316 L62.791,25.124 L63.088,26.085 L60.873,25.467 C60.873,25.467 60.003,26.639 59.81,26.778 C59.672,26.876 58.556,27.193 57.905,27.373 L57.905,44.589 L59.748,44.137 L67.094,40.302 L68.433,40.567 L69.176,38.352 L73.764,37.012 L74.173,38.015 L76.301,35.67 L78.932,35.624 L78.932,16.282 L73.454,17.837" id="Fill-5-Copy"></path>
                <path d="M71.295,66.531 L68.511,67.945 L78.932,67.945 L78.932,62.602 L75.508,64.219 L71.295,66.531" id="Fill-6-Copy"></path>
                <path d="M59.096,19.33 L70.261,16.766 L74.293,14.46 L75.624,14.651 L75.624,13.111 L78.932,12.39 L78.932,0.436 L57.905,0.436 L57.905,20.925 L58.171,20.925 L59.096,19.33" id="Fill-7-Copy"></path>
                <path d="M98.615,6.383 L99.613,5.283 L100.564,5.283 L101.614,4.584 L111.961,1.77 L117.346,0.436 L95.13,0.436 C90.117,0.436 86.644,3.908 86.644,8.827 L86.644,9.346 L96.776,6.383 L98.615,6.383" id="Fill-8-Copy"></path>
                <path d="M128.789,67.945 C132.841,67.945 135.851,65.657 136.871,62.191 L124.182,67.945 L128.789,67.945" id="Fill-9-Copy"></path>
                <path d="M92.635,32.53 L86.644,35.353 L86.644,57.043 L87.997,57.455 L88.785,55.312 L90.507,55.312 L91.566,54.458 L96.526,52.827 L107.764,49.306 L107.764,26.93 L92.635,32.53" id="Fill-10-Copy"></path>
                <path d="M114.911,67.945 L116.316,67.945 L118.587,66.046 L120.398,65.774 L122.231,65.595 L123.993,63.68 L132.471,60.534 L136.717,60.489 L136.983,58.336 L137.277,58.54 L137.277,8.827 C137.277,3.908 133.804,0.436 128.789,0.436 L124.927,0.436 L122.302,1.214 L99.184,7.583 L95.543,8.811 L93.161,9.885 L86.644,12.989 L86.644,31.958 L93.631,29.666 L95.671,30.284 L96.128,28.545 L97.755,28.545 L98.732,27.201 L99.998,27.201 L107.764,24.689 L107.764,17.41 L116.154,17.41 L116.154,21.975 L118.952,21.07 L119.821,21.191 L130.387,18.271 L116.154,24.282 L116.154,47.255 L122.712,45.442 L116.154,48.212 L116.154,51.069 L109.389,51.069 L105.107,52.877 L103.883,52.682 L86.644,59.018 L86.644,59.555 C86.644,64.474 90.117,67.945 95.13,67.945 L113.686,67.945 L114.564,67.666 L114.911,67.945" id="Fill-11-Copy"></path>
                <path d="M29.94,28.508 L28.342,30.044 L25.98,29.165 L23.92,30.573 L21.551,30.802 L21.551,17.41 L29.943,17.41 L29.94,28.508 L29.94,28.508 Z M42.672,0.436 L0.43,0.436 L0.43,46.837 L4.667,45.423 L4.508,43.946 L9.894,42.121 L10.101,41.44 L12.747,40.653 L18.68,36.943 L21.859,36.538 L23.41,35.398 L24.007,35.953 L26.722,32.44 L30.145,33.118 L31.321,30.973 L38.292,28.256 L38.433,29.699 L47.899,25.128 L48.479,24.458 L49.985,25.479 L51.062,23.898 L51.062,8.827 C51.062,3.908 47.59,0.436 42.672,0.436 L42.672,0.436 Z" id="Fill-21-Copy"></path>
            </g>
            <path d="M21.305,16.982 L29.7,16.982 L29.7,50.668 L21.305,50.668 L21.305,16.982 Z M42.343,0 L8.658,0 C3.64,0 0.165,3.471 0.165,8.397 L0.165,59.162 C0.165,64.083 3.641,67.559 8.658,67.559 L42.343,67.559 C47.363,67.559 50.835,64.083 50.835,59.162 L50.835,8.397 C50.835,3.471 47.363,0 42.343,0 Z M137,50.5599976 L137,41.5 L153.25,41.5 L153.25,25.5 L137,25.5 L137,17 L156.5,17 L160,8 L160,0 L130,0 L116,0 L116,67.5599976 L136.5,67.5599976 L159.5,67.5599976 L159.5,50.5599976 L137,50.5599976 Z M89.178,0.0049997038 L91.976,31.2711474 L80.394,0.0049997038 L58,0 L58.003,67.5599976 L77.402,67.5599976 L76.339,36.3858444 L86.28,67.5599976 L108.675,67.5599976 L108.673,0.0049997038 L89.178,0.0049997038 Z" id="Fill-13-Copy" fill="#FFFFFF" sketch:type="MSShapeGroup"></path>
            <path d="M99.277,0.441 L99.279,0.441" id="Fill-17-Copy" fill="#1A1918" sketch:type="MSShapeGroup"></path>
            <path d="M99.277,0.441 L99.279,0.441" id="Stroke-18-Copy" stroke-linecap="round" stroke-linejoin="round" sketch:type="MSShapeGroup"></path>
        </g>
    </g>
</svg>