<?xml version="1.0" encoding="UTF-8" standalone="no"?>
<svg width="24px" height="24px" viewBox="0 0 24 24" version="1.1" xmlns="http://www.w3.org/2000/svg" xmlns:xlink="http://www.w3.org/1999/xlink" xmlns:sketch="http://www.bohemiancoding.com/sketch/ns">
    <!-- Generator: Sketch 3.3.3 (12072) - http://www.bohemiancoding.com/sketch -->
    <title>burger</title>
    <desc>Created with Sketch.</desc>
    <defs></defs>
    <g id="Page-1" stroke="none" stroke-width="1" fill="none" fill-rule="evenodd" sketch:type="MSPage">
        <g id="burger" sketch:type="MSArtboardGroup" fill="#000000" opacity="0.540000021">
            <path d="M7,6 C7,5.44771525 7.44994876,5 8.00684547,5 L19.9931545,5 C20.5492199,5 21,5.44386482 21,6 C21,6.55228475 20.5500512,7 19.9931545,7 L8.00684547,7 C7.45078007,7 7,6.55613518 7,6 Z M3,18 C3,17.4477153 3.44994876,17 4.00684547,17 L15.9931545,17 C16.5492199,17 17,17.4438648 17,18 C17,18.5522847 16.5500512,19 15.9931545,19 L4.00684547,19 C3.45078007,19 3,18.5561352 3,18 Z M2,12 C2,11.4477153 2.45530558,11 2.99180311,11 L21.0081969,11 C21.5559546,11 22,11.4438648 22,12 C22,12.5522847 21.5446944,13 21.0081969,13 L2.99180311,13 C2.44404538,13 2,12.5561352 2,12 Z" id="Rectangle-1" sketch:type="MSShapeGroup"></path>
        </g>
    </g>
</svg>