<?xml version="1.0" encoding="UTF-8" standalone="no"?>
<svg width="24px" height="24px" viewBox="0 0 24 24" version="1.1" xmlns="http://www.w3.org/2000/svg" xmlns:xlink="http://www.w3.org/1999/xlink" xmlns:sketch="http://www.bohemiancoding.com/sketch/ns">
    <!-- Generator: Sketch 3.3.3 (12072) - http://www.bohemiancoding.com/sketch -->
    <title>cart-black</title>
    <desc>Created with Sketch.</desc>
    <defs></defs>
    <g id="Page-1" stroke="none" stroke-width="1" fill="none" fill-rule="evenodd" sketch:type="MSPage">
        <g id="cart-black" sketch:type="MSArtboardGroup" fill="#0F0B15">
            <path d="M9.8125,15.8125 C10.1666684,15.8125 10.4687487,15.9374987 10.71875,16.1875 C10.9687513,16.4375013 11.09375,16.7395816 11.09375,17.09375 C11.09375,17.4479184 10.9687513,17.755207 10.71875,18.015625 C10.4687487,18.276043 10.1666684,18.40625 9.8125,18.40625 C9.45833156,18.40625 9.15104297,18.276043 8.890625,18.015625 C8.63020703,17.755207 8.5,17.4479184 8.5,17.09375 C8.5,16.7395816 8.63020703,16.4375013 8.890625,16.1875 C9.15104297,15.9374987 9.45833156,15.8125 9.8125,15.8125 L9.8125,15.8125 Z M6,5.59375 L8.125,5.59375 L8.71875,6.90625 L18.34375,6.90625 C18.5104175,6.90625 18.6614577,6.96874938 18.796875,7.09375 C18.9322923,7.21875062 19,7.3645825 19,7.53125 C19,7.65625063 18.9791669,7.76041625 18.9375,7.84375 L16.59375,11.875 C16.3645822,12.3333356 15.9895859,12.5625 15.46875,12.5625 L10.625,12.5625 L9.96875,13.5625 C9.92708312,13.6666672 9.90625,13.7291666 9.90625,13.75 C9.90625,13.8541672 9.95833281,13.90625 10.0625,13.90625 L17.5,13.90625 L17.5,15.15625 L9.90625,15.15625 C9.48958125,15.15625 9.15104297,15.0416678 8.890625,14.8125 C8.63020703,14.5833322 8.5,14.2604187 8.5,13.84375 C8.5,13.5937487 8.55208281,13.3854175 8.65625,13.21875 L9.625,11.625 L7.3125,6.90625 L6,6.90625 L6,5.59375 Z M16.1875,15.8125 C16.5416684,15.8125 16.848957,15.9374987 17.109375,16.1875 C17.369793,16.4375013 17.5,16.7395816 17.5,17.09375 C17.5,17.4479184 17.369793,17.755207 17.109375,18.015625 C16.848957,18.276043 16.5416684,18.40625 16.1875,18.40625 C15.8333316,18.40625 15.5312513,18.276043 15.28125,18.015625 C15.0312487,17.755207 14.90625,17.4479184 14.90625,17.09375 C14.90625,16.7395816 15.0312487,16.4375013 15.28125,16.1875 C15.5312513,15.9374987 15.8333316,15.8125 16.1875,15.8125 L16.1875,15.8125 Z" id="android-cart---Ionicons" sketch:type="MSShapeGroup"></path>
        </g>
    </g>
</svg>