<?xml version="1.0" encoding="UTF-8" standalone="no"?>
<svg width="24px" height="24px" viewBox="0 0 24 24" version="1.1" xmlns="http://www.w3.org/2000/svg" xmlns:xlink="http://www.w3.org/1999/xlink" xmlns:sketch="http://www.bohemiancoding.com/sketch/ns">
    <!-- Generator: Sketch 3.3.3 (12072) - http://www.bohemiancoding.com/sketch -->
    <title>instagram-blue</title>
    <desc>Created with Sketch.</desc>
    <defs></defs>
    <g id="Page-1" stroke="none" stroke-width="1" fill="none" fill-rule="evenodd" sketch:type="MSPage">
        <g id="instagram-blue" sketch:type="MSArtboardGroup" fill="#009AD9">
            <path d="M17,9.125 L17,15.8984375 C17,16.195314 16.8906261,16.4531239 16.671875,16.671875 C16.4531239,16.8906261 16.1875016,17 15.875,17 L9.125,17 C8.81249844,17 8.54687609,16.8906261 8.328125,16.671875 C8.10937391,16.4531239 8,16.195314 8,15.8984375 L8,9.125 C8,8.81249844 8.10937391,8.54687609 8.328125,8.328125 C8.54687609,8.10937391 8.81249844,8 9.125,8 L15.875,8 C16.1875016,8 16.4531239,8.10937391 16.671875,8.328125 C16.8906261,8.54687609 17,8.81249844 17,9.125 L17,9.125 Z M12.5,10.625 C11.9843724,10.625 11.5429706,10.8085919 11.1757812,11.1757812 C10.8085919,11.5429706 10.625,11.9843724 10.625,12.5 C10.625,13.0156276 10.8085919,13.4570294 11.1757812,13.8242188 C11.5429706,14.1914081 11.9843724,14.375 12.5,14.375 C13.0156276,14.375 13.4570294,14.1914081 13.8242188,13.8242188 C14.1914081,13.4570294 14.375,13.0156276 14.375,12.5 C14.375,11.9843724 14.1914081,11.5429706 13.8242188,11.1757812 C13.4570294,10.8085919 13.0156276,10.625 12.5,10.625 L12.5,10.625 Z M16.25,10.25 L16.25,9.125 C16.25,8.87499875 16.1250013,8.75 15.875,8.75 L14.75,8.75 C14.4999987,8.75 14.375,8.87499875 14.375,9.125 L14.375,10.25 C14.375,10.5000013 14.4999987,10.625 14.75,10.625 L15.875,10.625 C16.1250013,10.625 16.25,10.5000013 16.25,10.25 L16.25,10.25 Z M15.8984375,16.25 C16.1328137,16.25 16.25,16.1250013 16.25,15.875 L16.25,11.75 L15.03125,11.75 C15.0937503,11.953126 15.125,12.2031235 15.125,12.5 C15.125,13.2343787 14.8750025,13.85156 14.375,14.3515625 C13.8593724,14.8671901 13.2343787,15.125 12.5,15.125 C11.7812464,15.125 11.1640651,14.8671901 10.6484375,14.3515625 C10.1328099,13.8359349 9.875,13.2187536 9.875,12.5 C9.875,12.2656238 9.91406211,12.0156263 9.9921875,11.75 L8.75,11.75 L8.75,15.875 C8.75,15.9843755 8.78906211,16.0742184 8.8671875,16.1445312 C8.94531289,16.2148441 9.03906195,16.25 9.1484375,16.25 L15.8984375,16.25 Z" id="social-instagram-outline---Ionicons" sketch:type="MSShapeGroup"></path>
        </g>
    </g>
</svg>