<?xml version="1.0" encoding="UTF-8" standalone="no"?>
<svg width="24px" height="24px" viewBox="0 0 24 24" version="1.1" xmlns="http://www.w3.org/2000/svg" xmlns:xlink="http://www.w3.org/1999/xlink" xmlns:sketch="http://www.bohemiancoding.com/sketch/ns">
    <!-- Generator: Sketch 3.3.3 (12072) - http://www.bohemiancoding.com/sketch -->
    <title>search-white</title>
    <desc>Created with Sketch.</desc>
    <defs></defs>
    <g id="Page-1" stroke="none" stroke-width="1" fill="none" fill-rule="evenodd" sketch:type="MSPage">
        <g id="search-white" sketch:type="MSArtboardGroup" fill="#FFFFFF">
            <path d="M14.7142949,11.2857087 C14.7142949,12.9397285 13.3683112,14.2857122 11.7142913,14.2857122 C10.0602715,14.2857122 8.71428776,12.9397285 8.71428776,11.2857087 C8.71428776,9.63168884 10.0602715,8.28570509 11.7142913,8.28570509 C13.3683112,8.28570509 14.7142949,9.63168884 14.7142949,11.2857087 L14.7142949,11.2857087 Z M18.1428704,16.8571439 C18.1428704,16.629465 18.0491203,16.4084826 17.8951023,16.2544646 L15.5982245,13.9575869 C16.1406359,13.1741038 16.4285827,12.2366027 16.4285827,11.2857087 C16.4285827,8.68079485 14.3192052,6.57141733 11.7142913,6.57141733 C9.10937751,6.57141733 7,8.68079485 7,11.2857087 C7,13.8906225 9.10937751,16 11.7142913,16 C12.6651853,16 13.6026864,15.7120532 14.3861695,15.1696419 L16.6830473,17.4598232 C16.8370653,17.6205376 17.0580477,17.7142878 17.2857265,17.7142878 C17.7544771,17.7142878 18.1428704,17.3258944 18.1428704,16.8571439 L18.1428704,16.8571439 Z" id="search-copy" sketch:type="MSShapeGroup"></path>
        </g>
    </g>
</svg>