<?xml version="1.0" encoding="UTF-8" standalone="no"?>
<svg width="24px" height="24px" viewBox="0 0 24 24" version="1.1" xmlns="http://www.w3.org/2000/svg" xmlns:xlink="http://www.w3.org/1999/xlink" xmlns:sketch="http://www.bohemiancoding.com/sketch/ns">
    <!-- Generator: Sketch 3.3.3 (12072) - http://www.bohemiancoding.com/sketch -->
    <title>twitter-blue</title>
    <desc>Created with Sketch.</desc>
    <defs></defs>
    <g id="Page-1" stroke="none" stroke-width="1" fill="none" fill-rule="evenodd" sketch:type="MSPage">
        <g id="twitter-blue" sketch:type="MSArtboardGroup" fill="#009AD9">
            <path d="M17.8482272,8.44641957 C17.4598339,8.61383048 17.0379584,8.73436634 16.60269,8.78124139 C17.0513513,8.51338393 17.3928695,8.09150843 17.553584,7.58927569 C17.1384049,7.83704384 16.6696544,8.01784763 16.1808145,8.11159774 C15.7857248,7.68972224 15.2232241,7.42856121 14.6004555,7.42856121 C13.4017933,7.42856121 12.4375065,8.39954451 12.4375065,9.59151022 C12.4375065,9.75892113 12.4575958,9.92633205 12.491078,10.0870465 C10.696433,9.99329641 9.09598464,9.13615253 8.03125123,7.82365097 C7.84375101,8.14507992 7.73660802,8.51338393 7.73660802,8.91517013 C7.73660802,9.66517102 8.1183049,10.3281182 8.70089488,10.7165116 C8.34598375,10.7031187 8.01116192,10.6026721 7.72321515,10.4419577 L7.72321515,10.4687434 C7.72321515,11.5200839 8.46651961,12.3906207 9.45759222,12.5915138 C9.27678843,12.6383888 9.08259177,12.6651746 8.88839511,12.6651746 C8.74776994,12.6651746 8.61384121,12.6517817 8.47991248,12.6316924 C8.75446638,13.4888363 9.55134233,14.1116049 10.5022363,14.1316942 C9.75893186,14.7142842 8.82812718,15.0558024 7.81696526,15.0558024 C7.63616147,15.0558024 7.46875056,15.049106 7.29464321,15.0290167 C8.25223364,15.6450889 9.39062785,16 10.6160757,16 C14.5937591,16 16.7701009,12.7053532 16.7701009,9.84597481 C16.7701009,9.75222469 16.7701009,9.65847458 16.7634045,9.56472447 C17.18528,9.25668839 17.553584,8.87499151 17.8482272,8.44641957 L17.8482272,8.44641957 Z" id="twitter---FontAwesome" sketch:type="MSShapeGroup"></path>
        </g>
    </g>
</svg>